<?xml version="1.0" encoding="UTF-8"?>
<svg id="Layer_1" data-name="Layer 1" xmlns="http://www.w3.org/2000/svg" viewBox="0 0 1649.94 825.96">
  <defs>
    <style>
      .cls-1, .cls-2, .cls-3, .cls-4 {
        fill: #7c993d;
      }

      .cls-2 {
        opacity: .8;
      }

      .cls-3 {
        opacity: .3;
      }

      .cls-4 {
        opacity: .5;
      }
    </style>
  </defs>
  <path class="cls-2" d="M1649.49,337.59c-17.37-4.47-40.87-7.46-71.35-5.28-42.53,3.04-84.28,30.25-124.66,56.57-33.44,21.8-68.02,44.33-103.09,53.54-38.11,9.99-69.91,11.05-97.22,3.22-24.36-6.98-45.83-21.02-67.59-44.17-6.41-6.82-12.12-15.08-18.17-23.82-14.73-21.28-29.96-43.29-57.02-46.03-28.54-2.88-63.95,16.93-111.44,62.37-65.92,63.09-123.6,106.21-171.45,128.16-37.92,17.4-69.56,21.51-94.04,12.22-48.4-18.37-54.38-84.75-54.43-85.41,0-.1-.02-.2-.03-.3-.14-1.1-3.52-27.35-17.13-56.78-18.29-39.55-46.46-65.69-81.46-75.58-41.51-11.73-76.17,5.73-106.75,21.14-33.05,16.65-61.6,31.04-95.76,13.54-29.83-15.28-35.12-61.55-40.23-106.3-3.16-27.72-6.44-56.38-15.55-78.73-10.85-26.61-28.59-40.94-54.22-43.79-62.76-6.99-117.88,32.77-187.67,83.11C55.85,222.84,29.46,241.86,0,261.01v16.32c32.75-20.94,61.68-41.79,88.25-60.96,70.03-50.51,120.62-87,178.13-80.6,20.47,2.28,34.14,13.51,43.04,35.34,8.4,20.6,11.56,48.31,14.62,75.11,5.52,48.34,11.23,98.32,47.6,116.95,13.13,6.73,25.64,9.42,37.69,9.42,24.98,0,47.99-11.59,70.49-22.93,29.73-14.98,60.48-30.46,96.85-20.19,31.37,8.86,55.79,31.68,72.59,67.8,12.38,26.61,15.86,51.12,16.11,52.95.19,2.14,1.93,19.73,9.91,39.83,11.27,28.37,29.67,48.11,53.22,57.08,10.16,3.87,21.19,5.8,33.09,5.8,60.49,0,143.28-49.95,246.83-149.06,43.76-41.88,76.67-61.05,100.57-58.64,20.77,2.1,33.57,20.61,47.12,40.19,6.07,8.77,12.34,17.84,19.45,25.41,34.16,36.37,70.78,53.74,116.32,53.74,18.95,0,39.46-3.01,61.96-8.91,37.22-9.76,72.74-32.92,107.1-55.31,40.7-26.53,79.15-51.59,118.15-54.38,30.98-2.21,54.12,1.27,70.38,5.9v-14.29Z"/>
  <path class="cls-4" d="M1649.49,577.26c-11.46,13.95-27.3,30.98-47.01,46.72-56.36,45.01-116.49,58.77-178.73,40.92-47.1-13.51-80.45-30.86-104.96-54.61-21.49-20.82-33.61-44.18-46.44-68.92-13.5-26.03-27.46-52.94-52.96-78.44-33.36-33.36-69.72-49.94-108.18-49.18-46.9.88-95.32,27.91-143.94,80.32-74.34,80.15-139.9,122.52-189.58,122.52-62.82,0-100.15-54.73-127.4-94.69-4.21-6.17-8.19-12-11.94-17.13-.03-.04-.06-.09-.09-.13-2.34-3.13-58.04-76.85-117.62-83.33-37.26-4.06-68.8,4.09-99.3,11.96-47.7,12.31-92.75,23.94-158.75-13.38-18.78-10.62-35.96-26.7-54.15-43.73-28.9-27.05-58.78-55.02-97.7-61.8-21.62-3.76-43.34-.64-66.37,9.56C30,330.29,15.3,339.37,0,351.32v42.02c60.16-55.3,93.82-49.46,105.27-47.47,29.51,5.14,54.68,28.69,81.32,53.63,18.76,17.56,38.16,35.73,60.27,48.23,34.55,19.54,67.69,29.19,101.32,29.53,29.63.28,55.83-6.47,81.18-13.01,29-7.49,56.39-14.56,87.84-11.13,37.91,4.12,81.69,52.33,95.41,70.62,3.43,4.69,7.24,10.28,11.27,16.19,14.39,21.09,32.29,47.34,56.53,68.99,29.48,26.32,62.22,39.67,97.3,39.67,59.66,0,131.33-44.67,213.03-132.76,42.48-45.8,83.21-69.38,121.08-70.09,29.42-.53,57.98,12.84,84.95,39.82,22,22,34.23,45.58,47.18,70.55,27.11,52.27,55.15,106.32,170.97,139.55,20.25,5.81,40.49,8.7,60.57,8.69,51.36,0,101.58-18.89,147.76-56.02,9.62-7.74,18.38-15.7,26.23-23.5v-47.56Z"/>
  <path class="cls-3" d="M1649.49,781.15c-6.66,2.87-13.55,5.66-20.61,8.32-37.67,14.18-72.87,21.82-104.62,22.7-39.15,1.07-73.12-8.17-101.01-27.52-52.34-36.32-89.66-31.71-125.74-27.25-27.42,3.39-53.32,6.59-86.51-7.35-38.11-16.01-80.83-53.38-130.61-114.24-35.29-43.15-81.48-56.05-141.21-39.42-51.17,14.25-105.53,47.99-158.1,80.62-66.84,41.49-129.99,80.69-177.15,74.45-81.28-10.73-118.63-67.16-151.58-116.94-16.01-24.18-31.12-47.02-49.67-61.52-21.23-16.6-45.09-20.42-72.93-11.67-83.87,26.36-125.08,8.63-168.7-10.14C119.88,533.47,77.58,515.27,0,530.6v14.04c75.41-15.37,116.07,2.11,155.63,19.13,28.2,12.13,57.01,24.53,97.43,24.53,22.64,0,48.94-3.89,80.8-13.91,23.54-7.4,42.72-4.41,60.38,9.39,16.79,13.13,31.31,35.06,46.68,58.29,32.86,49.64,73.75,111.42,161.22,122.96,3.92.52,7.91.77,11.97.77,49.89,0,110.42-37.57,174.21-77.17,103.55-64.28,210.64-130.75,281.46-44.16,89.94,109.97,145.1,129.57,191.76,129.56,13.02,0,25.38-1.53,37.65-3.04,35.08-4.33,68.2-8.43,116.25,24.91,28.76,19.96,63.27,30.05,102.67,30.05,2.21,0,4.45-.03,6.69-.1,33.32-.95,70.06-8.91,109.19-23.68,5.28-1.99,10.45-4.05,15.5-6.15v-14.89Z"/>
  <path class="cls-1" d="M1649.94,0H0v116.28c30.8-13.99,55.99-29.57,78.94-43.79,42.34-26.23,75.77-46.96,123.16-44.16,52.66,3.1,75.21,47.93,95.11,87.48,11.3,22.47,21.06,41.87,35.47,52.49,19.06,14.05,36.83,19.56,53.43,19.56,34.55,0,64.01-23.89,89.28-44.4,6.69-5.42,13-10.55,19.29-15.2,16.07-11.89,31.66-16.07,47.66-12.79,35.63,7.31,60.69,49.55,60.93,49.97.14.24.29.48.45.71,14.31,20.96,22.51,38.64,36.59,72.84,36.13,87.74,73.27,108.6,79.82,111.7,4.86,2.68,41.61,21.97,92.6,21.97,1.2,0,2.43-.01,3.65-.03,32.67-.59,64.1-9.13,93.41-25.37,36.18-20.05,69.08-51.92,97.8-94.72,40.9-60.97,82.95-92.35,121.69-90.77,18.94.78,55.6,10.83,88.32,69.45,25.49,45.67,62.69,72.03,104.74,74.25,1.89.1,3.78.15,5.68.15,42.59,0,84.58-25.12,115.98-69.65,50.81-72.06,106.55-102.41,144.37-115.19,27.17-9.18,49.25-10.88,61.13-10.97v-.07l.45.07V0Z"/>
</svg>