<svg width="88" height="88" viewBox="0 0 88 88" fill="none" xmlns="http://www.w3.org/2000/svg">
<path d="M35.0137 87.8428C34.6744 87.8428 34.3304 87.7897 33.9957 87.6789C32.5184 87.194 31.5859 85.7371 31.7659 84.1901L36.4356 44.0197H27.3732C26.2006 44.0197 25.118 43.3916 24.534 42.3757C23.95 41.3598 23.9569 40.1061 24.5502 39.0947L46.4975 1.61876C47.2731 0.293448 48.8635 -0.313791 50.3247 0.159536C51.7858 0.630554 52.7207 2.05515 52.5776 3.58134L49.9092 31.7547H63.2327C64.3984 31.7547 65.4764 32.3758 66.0604 33.3825C66.6444 34.3892 66.6513 35.6337 66.0742 36.6473L37.8575 86.192C37.262 87.2356 36.1655 87.8452 35.0137 87.8452V87.8428ZM33.0816 37.4762H40.1104C41.043 37.4762 41.934 37.8756 42.5526 38.5729C43.1735 39.2702 43.4667 40.2007 43.3582 41.1266L40.1173 68.9975L57.6027 38.2982H46.3128C45.3918 38.2982 44.5124 37.9103 43.8937 37.2291C43.2728 36.548 42.9704 35.636 43.0558 34.7194L44.667 17.6911L33.0793 37.4785L33.0816 37.4762Z" fill="#7C993D"/>
<path d="M16.5955 27.123C16.3624 27.123 16.127 27.0884 15.8938 27.0122L4.33153 23.2879C3.1266 22.9 2.46642 21.6094 2.85421 20.4064C3.242 19.2012 4.53236 18.5408 5.73498 18.9287L17.2973 22.653C18.5022 23.0409 19.1624 24.3316 18.7746 25.5345C18.463 26.5066 17.5627 27.123 16.5955 27.123Z" fill="#7C993D"/>
<path d="M14.2343 37.3261C14.1396 37.3261 14.0473 37.3215 13.9503 37.3077L2.00951 35.8346C0.753791 35.6799 -0.137215 34.537 0.0174414 33.2809C0.172098 32.0249 1.31471 31.1336 2.57042 31.2883L14.5113 32.7614C15.767 32.9161 16.658 34.059 16.5033 35.3151C16.3602 36.4764 15.3723 37.3261 14.2343 37.3261Z" fill="#7C993D"/>
<path d="M3.26747 48.88C2.11101 48.88 1.11844 48.0072 0.993787 46.832C0.859906 45.5736 1.76938 44.4446 3.0274 44.3107L14.9798 43.0338C16.2355 42.8999 17.3666 43.8096 17.5005 45.068C17.6343 46.3263 16.7249 47.4554 15.4668 47.5893L3.51446 48.8661C3.43136 48.8754 3.35057 48.88 3.26978 48.88H3.26747Z" fill="#7C993D"/>
<path d="M80.8079 68.8727C80.5079 68.8727 80.2032 68.8127 79.91 68.688L68.7424 63.9132C67.579 63.4168 67.0389 62.0707 67.5375 60.907C68.0361 59.7433 69.3818 59.203 70.5429 59.7017L81.7105 64.4766C82.8739 64.973 83.414 66.3191 82.9154 67.4828C82.5438 68.3532 81.6966 68.8727 80.8079 68.8727Z" fill="#7C993D"/>
<path d="M84.6281 56.9542C84.4665 56.9542 84.3026 56.9357 84.1364 56.9011L72.3825 54.3335C71.1476 54.0634 70.3651 52.842 70.6328 51.6067C70.9029 50.3715 72.124 49.5864 73.3589 49.8566L85.1128 52.4241C86.3477 52.6942 87.1303 53.9156 86.8625 55.1509C86.6294 56.2222 85.6807 56.9542 84.6281 56.9542Z" fill="#7C993D"/>
<path d="M74.2291 43.9135C72.9896 43.9135 71.9693 42.923 71.9416 41.6761C71.9116 40.4109 72.9134 39.3626 74.176 39.3326L84.8589 39.0809C84.8773 39.0809 84.8958 39.0809 84.9142 39.0809C86.1538 39.0809 87.1741 40.0715 87.2018 41.3183C87.2318 42.5836 86.23 43.6318 84.9673 43.6618L74.2845 43.9135C74.266 43.9135 74.2476 43.9135 74.2291 43.9135Z" fill="#7C993D"/>
</svg>
