<svg width="95" height="62" viewBox="0 0 95 62" fill="none" xmlns="http://www.w3.org/2000/svg">
<path d="M87.3909 13.3263V13.1106C87.3909 5.88176 81.5107 0 74.2837 0H17.8127C10.5858 0 4.70557 5.88176 4.70557 13.1106V17.0303C4.70557 19.3664 6.59833 21.2574 8.9339 21.2574C11.2695 21.2574 13.1622 19.3641 13.1622 17.0303V13.1106C13.1622 10.5449 15.25 8.4566 17.815 8.4566H74.2883C76.8533 8.4566 78.9411 10.5449 78.9411 13.1106V39.1413C78.9411 41.707 76.8533 43.7954 74.2883 43.7954H46.0528C43.7172 43.7954 41.8245 45.6886 41.8245 48.0225C41.8245 50.3564 43.7172 52.2497 46.0528 52.2497H74.2883C81.5153 52.2497 87.3955 46.3679 87.3955 39.139V38.1064C91.4517 37.6428 94.5994 34.3038 94.5994 30.251V21.1794C94.5994 17.1266 91.4517 13.7876 87.3955 13.324L87.3909 13.3263Z" fill="#7C993D"/>
<path d="M27.2858 17.2689V16.3486C27.2858 14.1938 25.5399 12.4451 23.3833 12.4451C21.2266 12.4451 19.4807 14.1915 19.4807 16.3486V17.2689C19.4807 19.4238 21.2266 21.1725 23.3833 21.1725C25.5399 21.1725 27.2858 19.4261 27.2858 17.2689Z" fill="#7C993D"/>
<path d="M41.8795 16.3464C41.8795 14.1916 40.1336 12.4429 37.977 12.4429C35.8204 12.4429 34.0745 14.1893 34.0745 16.3464V23.0957C34.0745 25.2506 35.8204 26.9992 37.977 26.9992C40.1336 26.9992 41.8795 25.2528 41.8795 23.0957V16.3464Z" fill="#7C993D"/>
<path d="M56.4733 35.9079V16.3486C56.4733 14.1938 54.7274 12.4451 52.5708 12.4451C50.4141 12.4451 48.6682 14.1915 48.6682 16.3486V35.9079C48.6682 38.0627 50.4141 39.8114 52.5708 39.8114C54.7274 39.8114 56.4733 38.065 56.4733 35.9079Z" fill="#7C993D"/>
<path d="M71.0671 35.9079V16.3486C71.0671 14.1938 69.3211 12.4451 67.1645 12.4451C65.0079 12.4451 63.262 14.1915 63.262 16.3486V35.9079C63.262 38.0627 65.0079 39.8114 67.1645 39.8114C69.3211 39.8114 71.0671 38.065 71.0671 35.9079Z" fill="#7C993D"/>
<path d="M24.2551 36.1534L16.4867 43.9239L14.3438 41.7804C13.4124 40.8487 11.9004 40.8487 10.9667 41.7804C10.0352 42.7122 10.0352 44.2245 10.9667 45.1585L14.7637 48.9565C15.1491 49.342 15.6355 49.5692 16.1379 49.6358C16.2618 49.6564 16.388 49.6656 16.5142 49.6656C17.1245 49.6656 17.737 49.4315 18.2028 48.9657L27.6322 39.5338C28.5637 38.602 28.5637 37.0897 27.6322 36.1557C26.7007 35.224 25.1888 35.224 24.2551 36.1557V36.1534Z" fill="#7C993D"/>
<path d="M19.4829 22.9097C8.72279 22.9097 0 31.6348 0 42.3977C0 53.1607 8.72279 61.8858 19.4829 61.8858C30.243 61.8858 38.9658 53.1607 38.9658 42.3977C38.9658 31.6348 30.243 22.9097 19.4829 22.9097ZM19.4829 56.0293C11.9554 56.0293 5.85267 49.9249 5.85267 42.3954C5.85267 34.8659 11.9554 28.7616 19.4829 28.7616C27.0104 28.7616 33.1131 34.8659 33.1131 42.3954C33.1131 49.9249 27.0104 56.0293 19.4829 56.0293Z" fill="#7C993D"/>
</svg>
