<svg width="109" height="84" viewBox="0 0 109 84" fill="none" xmlns="http://www.w3.org/2000/svg">
<path d="M46.1152 4C51.3629 1.09908 57.3804 -0.0308875 63.5107 0.730469C70.6608 1.61965 77.0876 5.00738 81.6006 10.2803C85.2758 14.5737 87.3367 19.7027 87.5811 25.0391C87.6478 25.0458 87.7145 25.0541 87.7812 25.0615L87.7871 25.0537L88.0928 25.0918C100.834 26.6729 109.91 38.2782 108.321 50.9648C107.901 54.3145 106.787 57.4599 105.011 60.3096C104.247 61.535 102.931 62.2069 101.585 62.207C100.86 62.207 100.126 62.0132 99.4648 61.6055C97.5747 60.4375 96.9898 57.9633 98.165 56.0791C99.3232 54.2206 100.05 52.1657 100.325 49.9727C101.348 41.8114 95.6156 34.329 87.4854 33.1094L87.0957 33.0566C85.9828 32.9178 84.8564 32.9006 83.7461 33.0068C82.5126 33.124 81.2943 32.6696 80.4414 31.7764C79.5886 30.8831 79.1961 29.648 79.3779 28.4268L79.4287 28.0615C79.9878 23.5941 78.5891 19.1291 75.4697 15.4834C72.2742 11.7495 67.6759 9.33288 62.5156 8.69238C58.0824 8.14191 53.7661 8.94745 50.0283 11.0146C46.4668 12.9846 43.7392 16.0001 42.334 19.4941C41.6631 21.1675 39.9553 22.188 38.1602 21.9941C32.3728 21.3701 26.9673 25.0034 25.3525 30.502L25.208 31.0391C24.7871 32.7733 23.2657 34.0216 21.4766 34.1025C14.87 34.4014 9.4828 39.3668 8.66309 45.9092C8.35438 48.3707 8.72792 50.8567 9.74414 53.1016V53.1025C10.164 54.0322 10.6944 54.9179 11.3154 55.7324C12.6629 57.4983 12.3169 60.0151 10.5439 61.3555C8.77232 62.6946 6.24691 62.3524 4.90039 60.5879C3.90987 59.2921 3.06857 57.8839 2.39844 56.4014C0.773922 52.8122 0.175392 48.8404 0.666992 44.917C1.30083 39.8493 3.73391 35.1634 7.51172 31.7168C10.5347 28.9612 14.2757 27.1287 18.2607 26.4092C21.1987 19.1447 28.2242 14.2252 36.0879 13.918C38.3488 9.82948 41.8324 6.36929 46.1152 4.00098V4Z" fill="#7C993D" stroke="#7C993D"/>
<path d="M84.4738 41.7455H24.5233C19.3693 41.7455 15.1757 45.9195 15.1757 51.0493V55.988C15.1757 58.7034 16.3512 61.1515 18.2222 62.8544C16.3512 64.5466 15.1757 66.9876 15.1757 69.696V74.7532C15.1757 79.8512 19.3426 83.9987 24.4646 83.9987H84.5325C89.6545 83.9987 93.8215 79.8512 93.8215 74.7532V69.696C93.8215 66.9876 92.6459 64.5466 90.775 62.8544C92.6459 61.1515 93.8215 58.7034 93.8215 55.988V51.0493C93.8215 45.9195 89.6278 41.7455 84.4738 41.7455ZM20.2176 51.0511C20.2176 48.688 22.149 46.7638 24.5251 46.7638H84.4738C86.8481 46.7638 88.7813 48.6862 88.7813 51.0511V55.9898C88.7813 58.3529 86.8499 60.2771 84.4738 60.2771H24.5233C22.149 60.2771 20.2158 58.3547 20.2158 55.9898V51.0511H20.2176ZM88.7813 74.755C88.7813 77.0863 86.8765 78.9821 84.5343 78.9821H24.4646C22.1224 78.9821 20.2176 77.0863 20.2176 74.755V69.6977C20.2176 67.3665 22.1224 65.4706 24.4646 65.4706H84.5325C86.8748 65.4706 88.7795 67.3665 88.7795 69.6977V74.755H88.7813Z" fill="#7C993D"/>
<path d="M24.8291 57.8945C25.8037 57.8945 26.5933 57.1086 26.5933 56.1385V50.9025C26.5933 49.9324 25.8037 49.1465 24.8291 49.1465C23.8545 49.1465 23.0648 49.9324 23.0648 50.9025V56.1385C23.0648 57.1086 23.8545 57.8945 24.8291 57.8945Z" fill="#7C993D"/>
<path d="M31.1018 57.8945C32.0764 57.8945 32.866 57.1086 32.866 56.1385V50.9025C32.866 49.9324 32.0764 49.1465 31.1018 49.1465C30.1272 49.1465 29.3375 49.9324 29.3375 50.9025V56.1385C29.3375 57.1086 30.1272 57.8945 31.1018 57.8945Z" fill="#7C993D"/>
<path d="M37.3728 57.8945C38.3474 57.8945 39.137 57.1086 39.137 56.1385V50.9025C39.137 49.9324 38.3474 49.1465 37.3728 49.1465C36.3982 49.1465 35.6085 49.9324 35.6085 50.9025V56.1385C35.6085 57.1086 36.3982 57.8945 37.3728 57.8945Z" fill="#7C993D"/>
<path d="M24.8291 67.8516C23.8545 67.8516 23.0648 68.6375 23.0648 69.6075V74.8436C23.0648 75.8136 23.8545 76.5996 24.8291 76.5996C25.8037 76.5996 26.5933 75.8136 26.5933 74.8436V69.6075C26.5933 68.6375 25.8037 67.8516 24.8291 67.8516Z" fill="#7C993D"/>
<path d="M31.1018 67.8516C30.1272 67.8516 29.3375 68.6375 29.3375 69.6075V74.8436C29.3375 75.8136 30.1272 76.5996 31.1018 76.5996C32.0764 76.5996 32.866 75.8136 32.866 74.8436V69.6075C32.866 68.6375 32.0764 67.8516 31.1018 67.8516Z" fill="#7C993D"/>
<path d="M37.3728 67.8516C36.3982 67.8516 35.6085 68.6375 35.6085 69.6075V74.8436C35.6085 75.8136 36.3982 76.5996 37.3728 76.5996C38.3474 76.5996 39.137 75.8136 39.137 74.8436V69.6075C39.137 68.6375 38.3474 67.8516 37.3728 67.8516Z" fill="#7C993D"/>
<path d="M81.397 75.5445C83.0197 75.5445 84.3351 74.0585 84.3351 72.2255C84.3351 70.3925 83.0197 68.9065 81.397 68.9065C79.7744 68.9065 78.459 70.3925 78.459 72.2255C78.459 74.0585 79.7744 75.5445 81.397 75.5445Z" fill="#7C993D"/>
</svg>
