<svg width="80" height="88" viewBox="0 0 80 88" fill="none" xmlns="http://www.w3.org/2000/svg">
<path d="M39.9202 87.7652C39.1749 87.7652 38.4296 87.5658 37.7681 87.167L2.06423 65.6792C0.791118 64.9133 0.0209238 63.5265 0.0435771 62.0378C0.0662304 60.5514 0.877198 59.1873 2.17523 58.4599L8.40262 54.9659C10.4142 53.8374 12.9582 54.5535 14.0841 56.5633C15.2054 58.5619 14.5054 61.0884 12.5233 62.2259L39.9224 78.7151L67.3261 62.2259C65.344 61.0884 64.644 58.5619 65.763 56.5633C66.8912 54.5535 69.4351 53.8374 71.4445 54.9636L77.6741 58.4576C78.9722 59.185 79.7832 60.5491 79.8058 62.0356C79.8285 63.522 79.0583 64.9088 77.7851 65.6769L42.0745 87.1647C41.413 87.5635 40.6677 87.7629 39.9224 87.7629L39.9202 87.7652Z" fill="#7C993D"/>
<path d="M39.9202 68.9443C39.1749 68.9443 38.4296 68.7449 37.7681 68.3461L2.06423 46.8583C0.791118 46.0924 0.0209238 44.7057 0.0435771 43.217C0.0662304 41.7305 0.877198 40.3664 2.17523 39.6391L8.67448 35.9932C10.6861 34.8648 13.23 35.5808 14.3559 37.5907C15.4818 39.6006 14.7682 42.1475 12.7589 43.2736L12.5233 43.4051L39.9224 59.8942L67.3261 43.4051L67.0905 43.2736C65.0789 42.1452 64.3653 39.6006 65.4912 37.5907C66.6193 35.5808 69.1633 34.8648 71.1726 35.9909L77.6741 39.6368C78.9722 40.3642 79.7832 41.7283 79.8058 43.2147C79.8285 44.7012 79.0583 46.0879 77.7851 46.8561L42.0745 68.3439C41.413 68.7427 40.6677 68.9421 39.9224 68.9421L39.9202 68.9443Z" fill="#7C993D"/>
<path d="M39.8771 49.872C39.1318 49.872 38.3865 49.6726 37.725 49.2738L2.02117 27.786C0.748055 27.0201 -0.022167 25.6333 0.00048627 24.1446C0.0231396 22.6582 0.834135 21.2941 2.13217 20.5667L37.836 0.533626C39.1046 -0.177875 40.6518 -0.177875 41.9204 0.533626L77.6311 20.569C78.9291 21.2963 79.7401 22.6604 79.7627 24.1469C79.7854 25.6333 79.0152 27.0201 77.7421 27.7882L42.0314 49.276C41.3699 49.6748 40.6246 49.8742 39.8794 49.8742L39.8771 49.872ZM12.4802 24.3349L39.8794 40.8241L67.283 24.3349L39.8794 8.96062L12.4802 24.3349Z" fill="#7C993D"/>
</svg>
