<svg width="67" height="71" viewBox="0 0 67 71" fill="none" xmlns="http://www.w3.org/2000/svg">
<path d="M55.958 19.3139H53.1253C51.9884 14.5111 49.8964 10.1626 47.087 6.84465C43.3495 2.43043 38.5157 0 33.4769 0C28.4382 0 23.5425 2.46137 19.7915 6.93166C17.015 10.2418 14.95 14.5517 13.8247 19.3139H10.9592C4.915 19.3139 0 24.2309 0 30.2731V59.1309C0 65.1731 4.91693 70.09 10.9592 70.09H55.958C62.0021 70.09 66.9171 65.1731 66.9171 59.1309V30.2731C66.9171 24.2289 62.0002 19.3139 55.958 19.3139ZM25.6694 11.8621C28.5735 8.3992 31.5163 7.6722 33.475 7.6722C36.994 7.6722 39.6352 9.91895 41.2303 11.8022C42.9338 13.815 44.2853 16.4001 45.1824 19.312H21.7695C22.657 16.4291 23.9872 13.8672 25.6694 11.8602V11.8621ZM59.7921 59.1309C59.7921 61.2461 58.0713 62.965 55.958 62.965H10.9592C8.84391 62.965 7.12501 61.2442 7.12501 59.1309V30.2731C7.12501 28.1578 8.84584 26.4389 10.9592 26.4389H55.958C58.0732 26.4389 59.7921 28.1598 59.7921 30.2731V59.1309Z" fill="#7C993D"/>
<path d="M37.8273 46.1898C39.5075 44.8925 40.5922 42.8603 40.5922 40.573C40.5922 36.6557 37.4174 33.4808 33.5001 33.4808C29.5828 33.4808 26.4079 36.6557 26.4079 40.573C26.4079 42.8603 27.4926 44.8944 29.1729 46.1898L25.4721 52.5975C24.6175 54.0767 25.6848 55.9251 27.3921 55.9251H39.6042C41.3115 55.9251 42.3788 54.0767 41.5242 52.5975L37.8234 46.1898H37.8273Z" fill="#7C993D"/>
</svg>
