<svg width="158" height="128" viewBox="0 0 158 128" fill="none" xmlns="http://www.w3.org/2000/svg">
<path d="M74.2521 112.317C70.1892 112.317 66.8947 109.022 66.8947 104.96C66.8947 100.898 70.1892 97.6036 74.2521 97.6036C97.1098 97.6036 115.704 79.0116 115.704 56.1566C115.704 33.3015 97.1098 14.7096 74.2521 14.7096C51.3944 14.7096 32.8002 33.3015 32.8002 56.1566C32.8002 57.7898 32.8971 59.4334 33.084 61.0459C33.5581 65.0806 30.6684 68.7346 26.6333 69.2087C22.5947 69.6827 18.9437 66.7934 18.4696 62.7588C18.2135 60.5822 18.0854 58.3608 18.0854 56.1566C18.0854 25.1942 43.2826 0 74.2521 0C105.222 0 130.419 25.1942 130.419 56.16C130.419 87.1259 105.222 112.32 74.2521 112.32V112.317Z" fill="white"/>
<path d="M41.3413 56.1602L27.9208 74.5341L9.54468 61.1152" stroke="white" stroke-width="12" stroke-linecap="round" stroke-linejoin="round"/>
<path d="M39.666 88.8735L55.7546 104.96L39.666 121.05" stroke="white" stroke-width="12" stroke-linecap="round" stroke-linejoin="round"/>
<path d="M55.7548 110.846H5.88659C2.63703 110.846 0 108.213 0 104.96C0 101.707 2.63357 99.0742 5.88659 99.0742H55.7548C59.0044 99.0742 61.6414 101.707 61.6414 104.96C61.6414 108.213 59.0078 110.846 55.7548 110.846Z" fill="white"/>
<path d="M135.025 88.8735L151.114 104.96L135.025 121.05" stroke="white" stroke-width="12" stroke-linecap="round" stroke-linejoin="round"/>
<path d="M151.113 110.846H120.677C117.427 110.846 114.79 108.213 114.79 104.96C114.79 101.707 117.424 99.0742 120.677 99.0742H151.113C154.363 99.0742 157 101.707 157 104.96C157 108.213 154.366 110.846 151.113 110.846Z" fill="white"/>
</svg>
