<svg width="76" height="89" viewBox="0 0 76 89" fill="none" xmlns="http://www.w3.org/2000/svg">
<path d="M25.3562 29.3534C25.3562 32.6917 28.0721 35.4098 31.4126 35.4098C34.7531 35.4098 37.469 32.6939 37.469 29.3534C37.469 26.0129 34.7531 23.297 31.4126 23.297C28.0721 23.297 25.3562 26.0129 25.3562 29.3534ZM33.1938 29.3534C33.1938 30.3355 32.3947 31.1346 31.4126 31.1346C30.4305 31.1346 29.6314 30.3355 29.6314 29.3534C29.6314 28.3713 30.4305 27.5722 31.4126 27.5722C32.3947 27.5722 33.1938 28.3713 33.1938 29.3534Z" fill="#7C993D"/>
<path d="M37.469 48.6446C37.469 45.3063 34.7531 42.5882 31.4126 42.5882C28.8259 42.5882 26.614 44.2186 25.7482 46.5081H22.5692C21.9554 44.8863 20.6631 43.594 19.0413 42.9802V35.0199C21.3286 34.1541 22.9612 31.9422 22.9612 29.3555C22.9612 26.0171 20.2453 23.2991 16.9048 23.2991C13.5643 23.2991 10.8484 26.015 10.8484 29.3555C10.8484 31.9422 12.4788 34.1541 14.7683 35.0199V42.9802C12.4809 43.846 10.8484 46.058 10.8484 48.6446C10.8484 51.983 13.5643 54.701 16.9048 54.701C19.4915 54.701 21.7034 53.0706 22.5692 50.7812H25.7482C26.362 52.403 27.6543 53.6952 29.276 54.3091V62.2694C26.9887 63.1352 25.3562 65.3471 25.3562 67.9338C25.3562 71.2721 28.0721 73.9902 31.4126 73.9902C34.7531 73.9902 37.469 71.2743 37.469 67.9338C37.469 65.3471 35.8386 63.1352 33.5491 62.2694V54.3091C35.8364 53.4432 37.469 51.2313 37.469 48.6446ZM31.4126 46.8613C32.3947 46.8613 33.1938 47.6604 33.1938 48.6425C33.1938 49.6246 32.3947 50.4237 31.4126 50.4237C30.4305 50.4237 29.6314 49.6246 29.6314 48.6425C29.6314 47.6604 30.4305 46.8613 31.4126 46.8613ZM16.9026 27.57C17.8848 27.57 18.6838 28.369 18.6838 29.3512C18.6838 30.3333 17.8848 31.1323 16.9026 31.1323C15.9205 31.1323 15.1215 30.3333 15.1215 29.3512C15.1215 28.369 15.9205 27.57 16.9026 27.57ZM16.9026 50.4258C15.9205 50.4258 15.1215 49.6268 15.1215 48.6446C15.1215 47.6625 15.9205 46.8635 16.9026 46.8635C17.8848 46.8635 18.6838 47.6625 18.6838 48.6446C18.6838 49.6268 17.8848 50.4258 16.9026 50.4258ZM31.4126 69.7171C30.4305 69.7171 29.6314 68.9181 29.6314 67.936C29.6314 66.9538 30.4305 66.1548 31.4126 66.1548C32.3947 66.1548 33.1938 66.9538 33.1938 67.936C33.1938 68.9181 32.3947 69.7171 31.4126 69.7171Z" fill="#7C993D"/>
<path d="M45.9226 54.6989C49.261 54.6989 51.979 51.983 51.979 48.6425C51.979 45.302 49.2631 42.5861 45.9226 42.5861C42.5821 42.5861 39.8662 45.302 39.8662 48.6425C39.8662 51.983 42.5821 54.6989 45.9226 54.6989ZM45.9226 46.8613C46.9047 46.8613 47.7038 47.6603 47.7038 48.6425C47.7038 49.6246 46.9047 50.4236 45.9226 50.4236C44.9405 50.4236 44.1414 49.6246 44.1414 48.6425C44.1414 47.6603 44.9405 46.8613 45.9226 46.8613Z" fill="#7C993D"/>
<path d="M16.9026 61.8796C13.5643 61.8796 10.8462 64.5955 10.8462 67.936C10.8462 71.2765 13.5621 73.9924 16.9026 73.9924C20.2431 73.9924 22.959 71.2765 22.959 67.936C22.959 64.5955 20.2431 61.8796 16.9026 61.8796ZM16.9026 69.7172C15.9205 69.7172 15.1214 68.9182 15.1214 67.936C15.1214 66.9539 15.9205 66.1549 16.9026 66.1549C17.8847 66.1549 18.6838 66.9539 18.6838 67.936C18.6838 68.9182 17.8847 69.7172 16.9026 69.7172Z" fill="#7C993D"/>
<path d="M45.9226 73.9902C49.261 73.9902 51.979 71.2743 51.979 67.9338C51.979 64.5933 49.2631 61.8774 45.9226 61.8774C42.5821 61.8774 39.8662 64.5933 39.8662 67.9338C39.8662 71.2743 42.5821 73.9902 45.9226 73.9902ZM45.9226 66.1527C46.9047 66.1527 47.7038 66.9517 47.7038 67.9338C47.7038 68.916 46.9047 69.715 45.9226 69.715C44.9405 69.715 44.1414 68.916 44.1414 67.9338C44.1414 66.9517 44.9405 66.1527 45.9226 66.1527Z" fill="#7C993D"/>
<path d="M58.8561 40.512C56.6635 40.512 54.8867 42.2888 54.8867 44.4792V76.2193C54.8867 78.5519 52.9892 80.4493 50.6567 80.4493H12.1666C9.83412 80.4493 7.93664 78.5519 7.93664 76.2193V20.5508C7.93664 18.2183 9.83412 16.3208 12.1666 16.3208H31.4106C33.6031 16.3208 35.38 14.544 35.38 12.3536C35.38 10.1632 33.6031 8.38636 31.4106 8.38636H12.1666C5.45765 8.38205 0 13.8419 0 20.5508V76.2215C0 82.9305 5.45765 88.3881 12.1666 88.3881H50.6567C57.3657 88.3881 62.8233 82.9305 62.8233 76.2215V44.4814C62.8233 42.2888 61.0465 40.5141 58.8539 40.5141L58.8561 40.512Z" fill="#7C993D"/>
<path d="M73.8656 21.3392C72.8382 21.029 72.149 20.0986 72.149 19.0239V18.7589C72.149 17.5571 72.9222 16.5104 74.0702 16.1572C74.8585 15.9138 75.3215 15.1234 75.1471 14.3179C74.7357 12.4139 74.0314 10.5962 73.0558 8.91191C72.6272 8.17316 71.701 7.90825 70.9472 8.31101L70.6694 8.45962C69.7217 8.96575 68.5759 8.7956 67.8156 8.03748C66.8529 7.07474 66.6354 5.62095 67.2707 4.41914C67.6541 3.69332 67.4107 2.78228 66.7151 2.34722C65.0502 1.30264 63.2432 0.531589 61.3414 0.0556057C60.5251 -0.149002 59.6938 0.320519 59.4482 1.12818L59.2846 1.66663C58.983 2.66598 58.0784 3.3358 57.0339 3.3358C55.6425 3.3358 54.4321 2.44198 54.0229 1.11311C53.7774 0.314058 52.9482 -0.155464 52.1362 0.0469906C50.2344 0.52082 48.4253 1.28756 46.7582 2.32783C46.0561 2.76505 45.8127 3.6804 46.2026 4.40837L46.3512 4.68836C46.8982 5.71141 46.7152 6.94767 45.8946 7.76826C44.9921 8.67069 43.6288 8.87529 42.5002 8.2787C41.7507 7.88241 40.8289 8.14517 40.4025 8.87745C39.4225 10.5595 38.7161 12.3773 38.3004 14.2791C38.1259 15.0782 38.6019 15.888 39.3837 16.1249C40.5252 16.4695 41.292 17.5033 41.292 18.6965V18.9592C41.292 20.0447 40.5941 20.9881 39.5582 21.3069C38.7462 21.5567 38.2788 22.3967 38.4985 23.2194C38.9939 25.0781 39.7692 26.842 40.8031 28.4638C41.2446 29.1552 42.1535 29.3921 42.875 29.0044C43.758 28.5306 44.8306 28.69 45.5392 29.3986L46.1293 29.9887C46.7884 30.6478 46.9391 31.6449 46.5019 32.4677C46.1099 33.2107 46.3662 34.1282 47.0878 34.559C48.7246 35.5347 50.4972 36.2497 52.3537 36.6891C53.1614 36.8786 53.9841 36.4069 54.2254 35.6122C54.4838 34.7593 55.257 34.1864 56.1465 34.1864H57.2191C58.1215 34.1864 58.9055 34.7658 59.1726 35.6273C59.3793 36.2992 60.0039 36.7408 60.6824 36.7408C60.8008 36.7408 60.9193 36.7278 61.0377 36.6998C62.8964 36.2648 64.669 35.5519 66.308 34.5805C67.036 34.1498 67.2923 33.2258 66.8938 32.4806C66.4588 31.6686 66.6052 30.6865 67.2557 30.0361L67.8479 29.4438C68.5652 28.7266 69.6485 28.5651 70.5445 29.0389C71.2638 29.418 72.1706 29.181 72.6078 28.4961C73.6459 26.8765 74.4256 25.1126 74.9252 23.256C75.1471 22.429 74.6797 21.5868 73.8591 21.3392H73.8656ZM66.6246 18.563C66.5083 23.8741 62.2546 28.1257 56.9434 28.242C54.2189 28.3045 51.6516 27.2706 49.7197 25.3387C47.7877 23.4068 46.7582 20.8416 46.8185 18.115C46.9348 12.8038 51.1885 8.55223 56.4976 8.43377C56.573 8.43377 56.6483 8.43162 56.7237 8.43162C59.3664 8.43162 61.8432 9.45897 63.7213 11.3371C65.5994 13.2151 66.6849 15.8341 66.6246 18.5608V18.563Z" fill="#7C993D"/>
</svg>
