<svg xmlns="http://www.w3.org/2000/svg" viewBox="0 0 240 72" role="img" aria-labelledby="title desc">
  <title id="title">Georama</title>
  <desc id="desc">Simplified Georama logo with map pin illustration and wordmark.</desc>
  <defs>
    <linearGradient id="leaf" x1="0%" x2="100%" y1="0%" y2="100%">
      <stop offset="0%" stop-color="#8ec64a"/>
      <stop offset="100%" stop-color="#6f9e31"/>
    </linearGradient>
  </defs>
  <g transform="translate(6 6)">
    <path d="M48 12c-12.15 0-22 9.85-22 22 0 14.34 15.68 30.16 20.1 34.12a3.5 3.5 0 0 0 4.8 0C55.32 64.16 71 48.34 71 34c0-12.15-9.85-22-22-22Zm0 32a11 11 0 1 1 0-22 11 11 0 0 1 0 22Z" fill="url(#leaf)"/>
    <path d="M47.8 0c4.16 5.62 5.06 10.7 2.7 15.22-2.36 4.53-7.79 8.48-16.28 11.87C29.56 18.78 31.2 10.3 36.34 5.2 41.5 0.1 46.32-0.84 47.8 0Z" fill="#6f9e31" opacity=".7"/>
    <circle cx="48" cy="34" r="7" fill="#fff" opacity=".95"/>
  </g>
  <text x="90" y="38" fill="#3b4a27" font-family="Manrope, Arial, sans-serif" font-size="28" font-weight="800" letter-spacing="1">
    GEORAMA
  </text>
</svg>
