<svg width="150" height="136" viewBox="0 0 150 136" fill="none" xmlns="http://www.w3.org/2000/svg">
<g clip-path="url(#clip0_388_329)">
<path d="M14.4484 117.463L14.1707 117.402C13.6886 117.298 13.1795 117.206 12.6588 117.133C12.1419 117.064 11.602 117.007 11.0543 116.972C10.5066 116.938 9.90872 116.918 9.28388 116.918C7.20108 116.918 5.44613 117.279 4.06531 117.993C2.69607 118.699 1.66624 119.778 1.00669 121.201C0.339419 122.637 0 124.49 0 126.701C0 128.912 0.308563 130.596 0.914117 131.963C1.51581 133.314 2.44536 134.334 3.67961 134.994C4.92157 135.662 6.51839 136 8.4199 136C9.94729 136 11.3821 135.873 12.6781 135.624C13.6809 135.432 14.6413 135.148 15.5284 134.783C15.918 134.622 16.1687 134.25 16.1687 133.832V126.072C16.1687 125.507 15.7136 125.051 15.1504 125.051H9.928C9.36487 125.051 8.90975 125.507 8.90975 126.072V127.868C8.90975 128.432 9.36487 128.889 9.928 128.889H10.2366C11.008 128.889 11.6367 129.518 11.6367 130.289V130.608C11.6367 131.314 11.116 131.905 10.4256 131.986C10.0129 132.032 9.5693 132.055 9.09488 132.055C8.23477 132.055 7.50579 131.886 6.92337 131.556C6.32553 131.218 5.88197 130.65 5.59655 129.86C5.31885 129.096 5.18 128.06 5.18 126.782C5.18 125.504 5.33428 124.414 5.63898 123.592C5.9514 122.752 6.45282 122.123 7.13937 121.723C7.81435 121.328 8.70147 121.129 9.77372 121.129C10.4796 121.129 11.2741 121.19 12.1342 121.305C12.6202 121.37 13.1023 121.447 13.569 121.532C14.1013 121.627 14.6143 121.286 14.7339 120.756L15.2083 118.68C15.3356 118.135 14.9923 117.582 14.4484 117.456V117.463Z" fill="#7C993D"/>
<path d="M34.3198 117.191H22.8451C22.1972 117.191 21.6726 117.717 21.6726 118.365V134.557C21.6726 135.206 22.1972 135.731 22.8451 135.731H34.8058C35.4538 135.731 35.9783 135.206 35.9783 134.557V132.746C35.9783 132.097 35.4538 131.571 34.8058 131.571H27.57C27.1149 131.571 26.7446 131.203 26.7446 130.75V129.119C26.7446 128.666 27.1149 128.298 27.57 128.298H33.6178C34.2658 128.298 34.7904 127.772 34.7904 127.123V125.665C34.7904 125.016 34.2658 124.49 33.6178 124.49H27.5662C27.1149 124.49 26.7446 124.122 26.7446 123.673V122.207C26.7446 121.754 27.1187 121.382 27.5739 121.382H34.3198C34.9678 121.382 35.4924 120.856 35.4924 120.207V118.369C35.4924 117.721 34.9678 117.195 34.3198 117.195V117.191Z" fill="#7C993D"/>
<path d="M56.5403 120.039C56.1006 119.317 55.5413 118.715 54.8702 118.25C54.1991 117.786 53.393 117.444 52.4788 117.237C51.5493 117.026 50.4925 116.922 49.3431 116.922C48.1937 116.922 47.1176 117.03 46.2073 117.237C45.3086 117.444 44.5025 117.79 43.8159 118.266C43.1294 118.738 42.5547 119.352 42.1073 120.081C41.656 120.818 41.3089 121.712 41.0736 122.74C40.8383 123.773 40.7188 124.993 40.7188 126.363C40.7188 127.733 40.846 128.985 41.1006 130.025C41.3513 131.061 41.7139 131.959 42.1728 132.696C42.628 133.429 43.2065 134.027 43.8931 134.484C44.5835 134.941 45.3896 135.278 46.2883 135.486C47.1947 135.697 48.2245 135.8 49.3431 135.8C50.4616 135.8 51.4992 135.693 52.4133 135.486C53.3197 135.278 54.1258 134.937 54.8085 134.469C55.4873 134.004 56.062 133.402 56.5172 132.68C56.9761 131.951 57.3271 131.049 57.5624 129.998C57.7977 128.935 57.9173 127.687 57.9173 126.279C57.9173 124.87 57.7977 123.696 57.5624 122.671C57.3271 121.654 56.9839 120.768 56.5442 120.039H56.5403ZM52.6138 128.512C52.5328 129.142 52.3978 129.675 52.2127 130.101C52.0276 130.531 51.7961 130.888 51.5339 131.161C51.26 131.445 50.9322 131.64 50.5542 131.748C50.1916 131.851 49.7828 131.901 49.3392 131.901C48.8957 131.901 48.5138 131.848 48.1512 131.748C47.781 131.644 47.4454 131.464 47.1561 131.214C46.8669 130.965 46.6277 130.616 46.4387 130.182C46.2536 129.76 46.1186 129.222 46.0376 128.593C45.9566 127.971 45.9142 127.219 45.9142 126.363C45.9142 125.507 45.9566 124.778 46.0376 124.16C46.1186 123.531 46.2536 122.998 46.4387 122.572C46.6277 122.138 46.863 121.789 47.1369 121.532C47.4146 121.271 47.7463 121.082 48.1204 120.967C48.8494 120.745 49.8252 120.745 50.558 120.967C50.9322 121.082 51.26 121.278 51.53 121.551C51.7961 121.816 52.0237 122.165 52.2088 122.583C52.394 123.001 52.529 123.531 52.61 124.16C52.691 124.778 52.7334 125.511 52.7334 126.336C52.7334 127.162 52.691 127.895 52.61 128.512H52.6138Z" fill="#7C993D"/>
<path d="M77.8041 118.331C77.1445 117.855 76.269 117.502 75.2044 117.283C74.1245 117.06 72.8208 116.949 71.3281 116.949C70.6994 116.949 69.9743 116.953 69.1566 116.965C68.3389 116.972 67.4364 116.995 66.476 117.034C65.8319 117.057 65.1453 117.091 64.4279 117.137C63.8609 117.176 63.4174 117.644 63.4174 118.208V134.899C63.4174 135.359 63.7915 135.735 64.2582 135.735H67.7102C68.1731 135.735 68.5472 135.363 68.5472 134.902V129.867H69.658C69.7159 129.867 69.847 129.867 69.982 129.863C69.9897 129.863 69.9975 129.863 70.009 129.863C70.2829 129.863 70.5413 129.998 70.7033 130.228C71.2587 131.015 71.818 131.721 72.3695 132.323C72.9905 133.007 73.5999 133.582 74.1823 134.031C74.7647 134.484 75.3587 134.864 75.9489 135.16C76.5351 135.459 77.1214 135.674 77.7 135.804C78.2746 135.935 78.8609 136.004 79.4395 136.004C79.6825 136.004 79.9023 135.996 80.099 135.977C80.2225 135.965 80.3343 135.95 80.4384 135.931V131.088H80.1453C79.8406 131.088 79.5128 131.034 79.1695 130.93C78.8339 130.827 78.4829 130.665 78.1281 130.451C77.7809 130.239 77.4184 129.982 77.052 129.679C76.9285 129.576 76.8013 129.468 76.674 129.353C76.4657 129.165 76.3654 128.889 76.404 128.608C76.4426 128.332 76.6123 128.09 76.863 127.967C77.2718 127.764 77.6498 127.511 77.9777 127.215C78.5215 126.732 78.9535 126.122 79.2659 125.392C79.5783 124.663 79.7365 123.777 79.7365 122.763C79.7365 121.75 79.5783 120.887 79.2659 120.146C78.9573 119.417 78.4714 118.807 77.8195 118.335L77.8041 118.331ZM74.3019 124.817C74.1746 125.185 73.9856 125.504 73.7311 125.765C73.4726 126.033 73.1294 126.225 72.7089 126.333C72.3078 126.436 71.8411 126.486 71.3243 126.486H70.5413C70.3214 126.486 69.5346 126.455 69.3456 126.444C68.8943 126.421 68.5434 126.049 68.5434 125.6V121.681C68.5434 121.236 68.8905 120.864 69.3379 120.833C69.4189 120.829 71.1546 120.752 71.4361 120.752C72.1767 120.752 72.7784 120.845 73.2219 121.025C73.6886 121.213 74.0242 121.52 74.2132 121.931C74.3945 122.322 74.487 122.848 74.487 123.485C74.487 124.007 74.4253 124.456 74.3019 124.817Z" fill="#7C993D"/>
<path d="M103.006 134.373L97.8567 117.851C97.7256 117.425 97.3283 117.133 96.8809 117.133H92.048C91.5852 117.133 91.1841 117.429 91.0491 117.87L85.9809 134.354C85.9115 134.584 85.9038 134.837 85.9964 135.06C86.1661 135.478 86.544 135.728 86.9683 135.728H90.081C90.5477 135.728 90.9565 135.413 91.0761 134.96L91.6353 132.78H97.0352L97.5944 134.96C97.7102 135.413 98.119 135.728 98.5896 135.728H101.995C102.238 135.728 102.481 135.658 102.666 135.501C103.014 135.213 103.137 134.78 103.01 134.373H103.006ZM93.1974 128.651C92.8619 128.651 92.6112 128.344 92.6806 128.017L93.9843 121.95C94.0228 121.766 94.181 121.639 94.37 121.639C94.559 121.639 94.7171 121.769 94.7557 121.954L96.0169 128.021C96.0864 128.347 95.8356 128.651 95.5001 128.651H93.1974Z" fill="#7C993D"/>
<path d="M126.279 117.191H122.9C122.484 117.191 122.102 117.433 121.925 117.813L118.419 125.281C118.357 125.415 118.222 125.5 118.071 125.5C117.921 125.5 117.79 125.415 117.724 125.277L114.265 117.809C114.091 117.433 113.709 117.191 113.296 117.191H109.648C109.054 117.191 108.568 117.675 108.568 118.273V134.653C108.568 135.248 109.05 135.731 109.644 135.731H112.128C112.722 135.731 113.204 135.248 113.204 134.653V125.93C113.204 125.745 113.327 125.592 113.509 125.554C113.686 125.515 113.863 125.603 113.941 125.772L116.475 131.372C116.648 131.755 117.034 132.005 117.454 132.005H118.388C118.808 132.005 119.19 131.759 119.367 131.375L122.009 125.634C122.075 125.496 122.206 125.412 122.353 125.412C122.38 125.412 122.411 125.412 122.438 125.419C122.615 125.458 122.738 125.611 122.738 125.791V134.649C122.738 135.244 123.221 135.728 123.815 135.728H126.272C126.866 135.728 127.348 135.244 127.348 134.649V118.269C127.348 117.675 126.866 117.191 126.272 117.191H126.279Z" fill="#7C993D"/>
<path d="M149.95 134.373L144.801 117.851C144.67 117.425 144.272 117.133 143.825 117.133H138.992C138.529 117.133 138.128 117.429 137.993 117.87L132.925 134.354C132.855 134.584 132.848 134.837 132.94 135.06C133.11 135.478 133.488 135.728 133.912 135.728H137.025C137.492 135.728 137.9 135.413 138.02 134.96L138.579 132.78H143.979L144.538 134.96C144.654 135.413 145.063 135.728 145.534 135.728H148.939C149.182 135.728 149.425 135.658 149.61 135.501C149.958 135.213 150.081 134.78 149.954 134.373H149.95ZM140.141 128.651C139.806 128.651 139.555 128.344 139.625 128.017L140.928 121.95C140.967 121.766 141.125 121.639 141.314 121.639C141.503 121.639 141.661 121.769 141.7 121.954L142.961 128.021C143.03 128.347 142.78 128.651 142.444 128.651H140.141Z" fill="#7C993D"/>
<path d="M112.672 76.5564C112.656 76.4451 111.133 65.2694 102.678 62.89C98.6437 61.754 95.2765 63.4426 91.7126 65.231C87.7437 67.219 83.2464 69.4756 78.0587 66.8314C73.3261 64.4174 72.6203 58.2616 71.9376 52.3092C71.089 44.9252 70.252 40.4082 65.7817 39.9131C59.2325 39.1877 53.3042 43.4439 45.0965 49.3349C40.252 52.8119 34.7596 56.7533 27.9674 60.499L26.3783 57.6437C33.0008 53.994 38.4084 50.1139 43.1795 46.6868C51.6534 40.6077 58.3415 35.8028 66.1482 36.6701C73.5421 37.4876 74.4215 45.167 75.2006 51.9407C75.7869 57.0412 76.3924 62.3143 79.5591 63.93C83.2618 65.8182 86.4979 64.1948 90.243 62.3181C94.0268 60.4223 98.3158 58.2731 103.577 59.7507C114.137 62.7211 115.865 75.6084 115.935 76.1534L112.679 76.5564H112.672Z" fill="#7C993D"/>
<path d="M118.943 67.5145C118.569 67.219 115.136 64.3407 109.871 53.8059C107.665 49.3963 106.682 47.9034 104.992 45.4434C104.954 45.3896 104.919 45.3321 104.884 45.2745C104.884 45.2745 104.707 44.979 104.391 44.5338L108.842 41.3753C109.204 41.878 109.443 42.2657 109.551 42.4422C111.302 44.9943 112.421 46.6983 114.762 51.3804C119.429 60.714 122.341 63.2507 122.368 63.2776L122.326 63.2431L118.939 67.5107L118.943 67.5145Z" fill="#7C993D"/>
<path d="M80.1491 48.6402C77.9275 48.6402 75.5322 47.9111 72.9673 46.0305C70.9848 44.576 69.6927 42.02 68.3234 39.3144C65.5657 33.857 63.2167 29.9732 58.1139 29.6738C52.8915 29.3707 49.2543 31.6119 44.217 34.7167C40.3831 37.0808 36.0401 39.7596 30.0501 41.8281L28.2566 36.6893C33.6757 34.8165 37.7449 32.3066 41.3396 30.0922C46.5582 26.8761 51.4875 23.8404 58.4379 24.2434C67.0815 24.75 70.6222 31.7539 73.2064 36.8697C74.2247 38.8846 75.2815 40.9723 76.2111 41.6516C80.4615 44.7679 83.4006 42.7147 88.2296 38.8193C89.028 38.1746 89.8534 37.5106 90.6749 36.9043C92.3875 35.6455 94.1771 34.8625 96.0015 34.5824L96.8423 39.9553C95.9012 40.1011 94.9177 40.5463 93.9226 41.2755C93.1974 41.809 92.453 42.4077 91.6701 43.0447C88.5883 45.5355 84.7351 48.6441 80.1452 48.6441L80.1491 48.6402Z" fill="#7C993D"/>
<path d="M108.722 87.8472C107.665 87.8472 106.612 87.4135 105.856 86.5653C103.222 83.6179 98.0843 79.0663 95.423 78.6595C91.9825 78.1337 88.9586 78.9243 85.4525 79.8377C79.289 81.4457 72.3039 83.2725 62.5919 77.8036C59.7531 76.2071 57.354 73.9697 55.0321 71.809C48.4944 65.7223 44.5487 62.0457 34.2157 72.1851C32.7115 73.6627 30.2892 73.6435 28.8043 72.1467C27.3193 70.65 27.3386 68.2399 28.8429 66.7623C44.4137 51.4879 53.5742 60.0193 60.2622 66.248C62.3489 68.19 64.316 70.0244 66.3564 71.1719C73.3646 75.1172 78.0663 73.8891 83.5086 72.4691C87.2885 71.479 91.5775 70.3622 96.5839 71.1297C102.913 72.0968 110.184 79.9451 111.58 81.511C112.984 83.0845 112.837 85.4908 111.256 86.8839C110.527 87.5286 109.621 87.8433 108.718 87.8433L108.722 87.8472Z" fill="#7C993D"/>
<path d="M104.313 94.1028H45.6865C44.7184 94.1028 43.7735 93.7842 43.0098 93.1932C30.108 83.2533 22.7102 68.2514 22.7102 52.0328C22.7102 23.3415 46.1648 0 75 0C78.0586 0 81.125 0.264808 84.118 0.790586C86.4978 1.20507 88.0869 3.46169 87.6665 5.82961C87.2499 8.19753 84.9781 9.77871 82.6022 9.36039C80.1106 8.92288 77.5533 8.70412 75 8.70412C50.99 8.70412 31.4541 28.1387 31.4541 52.0328C31.4541 65.0507 37.1818 77.132 47.2178 85.4025H102.778C112.818 77.132 118.542 65.0545 118.542 52.0328C118.542 49.8875 118.384 47.7345 118.071 45.6314C117.717 43.252 119.367 41.0414 121.759 40.6883C124.146 40.3352 126.372 41.9778 126.727 44.3573C127.101 46.8825 127.294 49.4654 127.294 52.0328C127.294 68.2514 119.896 83.2533 106.994 93.1932C106.227 93.7842 105.285 94.1028 104.317 94.1028H104.313Z" fill="#7C993D"/>
<path d="M107.669 105.486H42.3156C40.2019 105.486 38.4894 103.782 38.4894 101.679C38.4894 99.5755 40.2019 97.8715 42.3156 97.8715H107.669C109.783 97.8715 111.495 99.5755 111.495 101.679C111.495 103.782 109.783 105.486 107.669 105.486Z" fill="#7C993D"/>
<path d="M103.854 48.2871C100.796 48.2871 97.3283 44.7218 93.5446 37.691C91.0182 32.9974 88.3221 26.4002 88.3221 21.9714C88.3221 13.4476 95.2918 6.51657 103.854 6.51657C112.417 6.51657 119.387 13.4515 119.387 21.9714C119.387 26.4002 116.687 32.9974 114.164 37.691C110.381 44.7218 106.913 48.2871 103.854 48.2871ZM103.854 11.9509C98.3041 11.9509 93.7876 16.445 93.7876 21.9675C93.7876 24.5504 95.4577 29.5165 97.9454 34.3291C100.63 39.5216 102.882 42.0392 103.854 42.7185C104.823 42.0392 107.079 39.5178 109.763 34.3291C112.251 29.5165 113.921 24.5504 113.921 21.9675C113.921 16.445 109.405 11.9509 103.854 11.9509Z" fill="#D2A444"/>
<path d="M103.854 26.4002C106.317 26.4002 108.313 24.4139 108.313 21.9637C108.313 19.5135 106.317 17.5272 103.854 17.5272C101.392 17.5272 99.3958 19.5135 99.3958 21.9637C99.3958 24.4139 101.392 26.4002 103.854 26.4002Z" fill="#D2A444"/>
</g>
<defs>
<clipPath id="clip0_388_329">
<rect width="150" height="136" fill="white"/>
</clipPath>
</defs>
</svg>
